<?xml version="1.0" standalone="no"?>
<!DOCTYPE svg PUBLIC "-//W3C//DTD SVG 20010904//EN"
 "http://www.w3.org/TR/2001/REC-SVG-20010904/DTD/svg10.dtd">
<svg version="1.0" xmlns="http://www.w3.org/2000/svg"
 width="300.000000pt" height="293.000000pt" viewBox="0 0 300.000000 293.000000"
 preserveAspectRatio="xMidYMid meet">
<metadata>
Created by potrace 1.10, written by Peter Selinger 2001-2011
</metadata>
<g transform="translate(0.000000,293.000000) scale(0.100000,-0.100000)"
fill="#000000" stroke="none">
<path d="M1340 2920 c-78 -7 -163 -25 -247 -51 l-33 -11 0 -1393 0 -1393 33
-11 c151 -50 352 -70 531 -53 113 11 283 45 298 60 5 6 14 1605 9 1650 -1 9
-48 12 -201 12 l-200 0 0 -125 0 -125 80 0 80 0 0 -609 c0 -546 -2 -609 -16
-615 -21 -8 -303 -8 -343 0 l-31 7 2 1221 3 1221 190 0 190 0 -4 -302 -4 -303
127 0 126 0 0 380 0 380 -23 9 c-107 41 -396 67 -567 51z"/>
<path d="M2150 2135 l0 -655 306 0 306 0 -7 -87 c-22 -282 -136 -536 -342
-762 l-33 -36 0 303 0 302 -115 0 -115 0 0 -531 0 -530 58 32 c260 147 464
345 604 589 45 78 108 241 140 360 27 101 31 136 36 287 2 94 1 206 -3 247
l-7 76 -299 0 -299 0 0 310 c0 171 2 310 5 310 10 0 86 -84 136 -150 27 -36
75 -118 107 -182 l57 -117 124 0 124 -1 -7 33 c-11 55 -121 272 -188 369 -70
102 -221 261 -312 327 -63 47 -178 116 -238 143 l-38 18 0 -655z"/>
<path d="M748 2737 c-224 -128 -417 -315 -549 -532 -112 -184 -168 -366 -189
-613 -51 -584 235 -1112 762 -1406 l47 -26 66 86 65 87 0 1163 0 1164 -52 57
c-28 32 -57 59 -62 61 -6 1 -46 -17 -88 -41z m-30 -1748 l-3 -480 -96 93
c-129 125 -183 197 -252 334 -89 178 -121 319 -121 534 1 372 130 662 402 904
l67 60 3 -482 c1 -265 1 -698 0 -963z"/>
</g>
</svg>
